<svg viewBox="0 0 96 96" xmlns="http://www.w3.org/2000/svg" xmlns:xlink="http://www.w3.org/1999/xlink" id="Icons_RemoteLearningEnglish" overflow="hidden"><path d="M84.0058 13.9964 12.0058 13.9964C9.7993 14.0029 8.01221 15.7899 8.00576 17.9964L8.00576 65.9964C8.01221 68.2029 9.7993 69.9899 12.0058 69.9964L40.0058 69.9964 40.0058 75.9964 30.0058 75.9964 30.0058 81.9964 66.0058 81.9964 66.0058 75.9964 56.0058 75.9964 56.0058 69.9964 84.0058 69.9964C86.2122 69.9899 87.9993 68.2029 88.0058 65.9964L88.0058 17.9964C87.9993 15.7899 86.2122 14.0029 84.0058 13.9964ZM82.0058 63.9964 14.0058 63.9964 14.0058 19.9964 82.0058 19.9964Z"/><path d="M24.1774 53.3287C27.6385 53.2183 37.4024 53.4293 45.3356 58.6116 45.7096 58.8597 46.1478 58.9934 46.5966 58.9964L49.4266 58.9964C49.857 58.9939 50.2781 58.8708 50.642 58.641 58.9617 53.4567 68.423 53.2203 71.8135 53.327 72.4422 53.3474 72.9684 52.8543 72.9888 52.2256 72.9903 52.1774 72.9888 52.1292 72.9843 52.0812L71.2704 33.5778C71.2172 32.9889 70.7221 32.5388 70.1309 32.5416 69.8459 32.5438 69.4977 32.5526 69.1077 32.5684L68.8104 29.3936 67.9657 29.3326C67.0851 29.2952 66.203 29.3198 65.3258 29.4062L65.0565 26.2857 64.3036 26.1499C58.3062 25.4083 52.2989 27.4507 47.9965 31.6944 43.6938 27.451 37.6868 25.4086 31.6894 26.1499L30.9364 26.2856 30.6673 29.4059C29.7901 29.3197 28.9079 29.2951 28.0273 29.3325L27.1825 29.3935 26.8853 32.5683C26.4953 32.5525 26.1473 32.5438 25.8623 32.5416 25.2711 32.5388 24.776 32.9889 24.7228 33.5777L23.0089 52.0829C22.9488 52.7082 23.4071 53.2639 24.0324 53.324 24.0806 53.3287 24.129 53.3302 24.1774 53.3287ZM48.997 33.5321C52.6839 29.6872 57.8841 27.6719 63.1992 28.0283L64.7489 45.9829C58.9423 47.047 53.5132 49.6061 48.997 53.4079ZM48.997 56.1548C55.8654 49.1268 65.8431 47.8308 65.9452 47.8184L66.9042 47.7012 65.4989 31.4122C66.0973 31.3568 66.6056 31.3292 66.9823 31.3208L68.6786 49.4439C61.5313 49.6444 54.6352 52.1242 48.997 56.5213ZM32.7929 28.0347C38.1034 27.7054 43.2925 29.7142 46.997 33.5335L46.997 53.4088C42.4806 49.6065 37.0511 47.0471 31.244 45.9829ZM29.0116 31.3184C29.3881 31.3259 29.8961 31.3525 30.4945 31.4072L29.0888 47.7026 30.0478 47.8184C30.1501 47.8307 40.1137 49.1094 46.997 56.1558L46.997 56.522C41.3587 52.1243 34.4621 49.6442 27.3144 49.4438Z"/><path d="M52.0058 42.4376 52.0058 44.8897C54.7065 42.9312 57.7004 41.4127 60.8761 40.3907L60.7187 38.3391C57.6371 39.2915 54.7043 40.671 52.0058 42.4376Z"/><path d="M60.3126 33.0493C57.3781 33.9927 54.584 35.3272 52.0058 37.0167L52.0058 39.4688C54.589 37.5925 57.4435 36.1216 60.4706 35.1067Z"/></svg>